<svg xmlns="http://www.w3.org/2000/svg" viewBox="0 0 1440 320">
  <path fill="transparent" border='orange' fill-opacity="1" d="M0,224L48,202.7C96,181,192,139,288,117.3C384,96,480,96,576,112C672,128,768,160,864,165.3C960,171,1056,149,1152,160C1248,171,1344,213,1392,234.7L1440,256L1440,320L1392,320C1344,320,1248,320,1152,320C1056,320,960,320,864,320C768,320,672,320,576,320C480,320,384,320,288,320C192,320,96,320,48,320L0,320Z" data-darkreader-inline-fill="" style="--darkreader-inline-fill:#007acc;"></path>
</svg>